<?xml version="1.0" standalone="no"?>
<!DOCTYPE svg PUBLIC "-//W3C//DTD SVG 1.1//EN" "http://www.w3.org/Graphics/SVG/1.1/DTD/svg11.dtd" >
<svg>
<metadata>
Created by FontForge 20090914 at Thu Feb 23 21:11:35 2012
 By root
Jenny Barck 1997&#194;&#169;
</metadata>
<defs>
<font id="DayOfTheTentacle" horiz-adv-x="500" >
  <font-face 
    font-family="Day Of The Tentacle"
    font-weight="400"
    font-stretch="normal"
    units-per-em="1000"
    panose-1="0 0 0 0 0 0 0 0 0 0"
    ascent="800"
    descent="-200"
    x-height="663"
    cap-height="819"
    bbox="-50 -228 585 839"
    underline-thickness="20"
    underline-position="-123"
    unicode-range="U+0020-U+00F6"
  />
<missing-glyph 
d="M63 0v839h375v-839h-375zM125 63h250v714h-250v-714z" />
    <glyph glyph-name=".notdef" 
d="M63 0v839h375v-839h-375zM125 63h250v714h-250v-714z" />
    <glyph glyph-name=".null" horiz-adv-x="0" 
 />
    <glyph glyph-name="nonmarkingreturn" 
 />
    <glyph glyph-name="space" unicode=" " 
 />
    <glyph glyph-name="A" unicode="A" horiz-adv-x="319" 
d="M295 65q1 -19 -28 -43q-15 13 -24 33q-13 29 -15 32q-32 -49 -130 -59q-32 0 -59.5 25.5t-31 59t-3.5 52.5q0 96 79 165q40 35 91 41q16 0 43 8q7 5 7 18q-1 26 -1 20q-3 33 -13 63q-3 9 -24 61l-6 22q-5 13 -14 13q-6 -1 -24 -28q-32 -49 -32 -128v-52q-14 -6 -27 -11
q-5 -1 -10 -1h-8q-14 0 -43 6q7 24 18 131q8 81 36 125q10 16 18 24q20 21 55 21q31 0 60 -23l49 -43q10 -9 11 -23l12 -118l-6 -323q10 -22 20 -68zM217 326l-1 3l-74 -40q-57 -46 -57 -120q0 -38 14 -55q10 -13 27 -11q94 10 94 164q0 30 -3 59z" />
    <glyph glyph-name="B" unicode="B" horiz-adv-x="346" 
d="M345 289q0 -68 -40 -158q-53 -119 -148 -129q-61 -7 -100 53q-31 48 -37 115q-3 31 -3 59q0 24 22 196q9 66 16 183q8 132 13 184l76 8l-59 -353q5 4 45 48q27 30 59 30q54 0 97 -64q28 -41 37 -60q22 -45 22 -112zM250 219q-7 54 -56 103q-10 11 -22 22.5t-26 9.5
q-6 0 -33 -25q-46 -43 -46 -118q0 -30 7 -82q4 -32 28 -56t55 -21l30 3q32 44 45 69q19 37 19 74q0 13 -1 21z" />
    <glyph glyph-name="C" unicode="C" horiz-adv-x="305" 
d="M269 552q5 -25 5 -43q0 -30 -27 -48l-31 -21l-3 87q-5 35 -13 50q-13 25 -39 25q-13 0 -13 -30v-15q-14 -119 -14 -167q0 -26 -4 -78.5t-4 -78.5q0 -104 38 -162l10 -19q3 -7 12 -6q10 1 13.5 12l6.5 21l41 100l19 1q-22 -179 -109 -179q-25 0 -43 14q-13 10 -31 33
q-32 41 -42 59q-19 33 -23 67l-10 92q-3 28 -3 54q0 34 20 155q27 161 109 171q38 4 52 4q26 0 46 -13q37 -24 37 -85z" />
    <glyph glyph-name="D" unicode="D" horiz-adv-x="408" 
d="M360 804q0 -73 -9 -206q-9 -143 -10 -205l-4 -230q0 -11 2.5 -33t2.5 -33v-18q-3 -9 -4 -13q-23 -66 -97 -66q-5 -1 -15 -1q-33 0 -62 20q-17 12 -52 50q-52 56 -68 83q-26 43 -32 100q-1 9 -1 25q0 54 29 101q21 33 76 85q15 16 46 46q24 22 56 26q29 3 50 -21
q5 -6 33 -56l-5 346h64zM300 177q0 13 1 39.5t1 39.5q0 27 -2 42q-5 34 -27 58t-55 20q-53 -6 -85 -53q-28 -42 -28 -98q0 -45 21 -81q12 -20 23 -35q22 -30 36 -40q21 -16 50 -16q12 0 38.5 27.5t26.5 96.5z" />
    <glyph glyph-name="E" unicode="E" horiz-adv-x="330" 
d="M283 639q2 -17 2 -42q0 -48 -16 -111q-25 -98 -29 -123l-138 9q-7 -5 -11 -45l-5 -30q-3 -19 -3 -29q0 -24 18 -96l6 -51q8 -33 29 -33q11 0 15 11t8 25q17 47 17 89v18q-2 15 -2 22l29 4l42 -14q12 -6 12 -18q1 -7 1 -21q0 -42 -21 -82q-9 -16 -30 -50l-26 -38
q-16 -18 -38 -18q-24 -3 -43 15q-7 7 -30 43q-59 93 -71 202q-5 50 -5 86q0 61 32 202l12 64q8 36 21 62.5t40 37.5q17 8 57 13q7 0 21.5 1.5t21.5 1.5q20 0 40 -6q27 -8 37 -39q4 -11 7 -60zM224 624q-10 69 -58 63q-19 0 -29 -27l-13 -33q-30 -65 -30 -129q0 -28 2 -45
l4 -34l98 -5l27 179v19q-1 8 -1 12z" />
    <glyph glyph-name="F" unicode="F" horiz-adv-x="328" 
d="M282 465q-29 -8 -87 -27q13 71 13 117q0 36 -4 69q-5 43 -12 61q-12 33 -39 29q-18 -2 -24 -24q-2 -7 -6 -44q0 -28 -2 -82l-2 -64v-138q0 -12 1 -32q2 -24 2 -32q0 -16 -2 -28l2 -15l37 3q5 -20 5 -18v-31q-1 -21 -1 -31v-12q-19 -4 -31 -4q-7 1 -10 1q-2 -18 -2 -33
q0 -16 2.5 -48.5t2.5 -48.5v-21q0 -39 -18 -44q-23 -2 -69 -9l3 203q-5 6 -14 5l-23 -2q-3 26 -3 42v24q0 12 -1 18l40 2q0 33 3 98t3 98v39q-1 25 -1 38q0 84 25 146q23 58 42 83q28 38 72 42q66 6 79 -95q6 -47 12 -129z" />
    <glyph glyph-name="G" unicode="G" horiz-adv-x="378" 
d="M319 120q1 -10 1 -12v-12q0 -14 -3.5 -44t-3.5 -46q1 -38 1 -29q0 -26 -12 -42q-15 -20 -32 -28l-43 -20l-55 -31q-29 -16 -54 -16q-56 0 -81 78q-19 59 -22 70q-12 41 -15 73l-6 61q0 29 16.5 54t71.5 43q3 2 6 1t7 -4q-4 5 -7 11q-3 19 6 35q-59 34 -63 68q-2 16 -2 24
q0 44 61 105l47 48q24 22 57 26q21 2 40 -22l2 9q-11 20 -15 29q-6 14 -7 32q-1 5 -1 13v7q0 18 14 80l51 -6q24 -6 24 -25q2 -12 -2 -32q-4 -24 -4 -32q1 -9 7 -18q14 -21 15 -28q0 -18 -3 -33q-9 -45 -9 -50q1 -8 1.5 -13.5t0.5 -16.5q0 -16 -14 -58l-6 -32
q-7 -22 -34 -36q-10 -6 -48 -19.5t-50 -36.5q17 -8 64 -12q41 -5 62 -19t29 -40q4 -12 8 -54zM233 395q-2 15 -14 24.5t-27 7.5q-87 -10 -87 -68q0 -13 11.5 -20.5t24.5 -5.5q97 14 92 62zM264 100q-3 15 -22 15q1 0 -51 -8q-36 0 -49 -3q-24 -5 -42 -23q-27 -27 -25 -84
q3 -75 29 -72q25 0 89 29l35 8q32 7 32 31q-2 15 -2 24q0 14 3 41.5t3 41.5z" />
    <glyph glyph-name="H" unicode="H" horiz-adv-x="363" 
d="M350 350v-80v-41q1 -31 1 -42q1 -171 -18 -171l-92 -11q0 59 11 171q6 61 6 93v36q-2 15 -4 39q-5 47 -7 53q-8 27 -32 25q-14 -3 -30 -30q-21 -35 -25 -90l-4 -93q-9 -83 -9 -129q0 -45 5 -87l-110 -12l16 814q9 1 13 1q11 0 37 -3q14 0 32 7q0 -53 2 -135l2 -121
q0 -13 4 -36q45 48 98 53q82 8 100 -158q5 -46 5 -41q-1 -8 -1 -12z" />
    <glyph glyph-name="I" unicode="I" horiz-adv-x="194" 
d="M152 819l-19 -244l-56 17q-27 7 -58 7l3 206zM178 505q-19 -116 -19 -266v-43l-4 -79q0 -7 3 -36q0 -9 -5 -20q-11 -25 -53 -49q-31 -18 -48 -31q0 81 -3 152q-8 190 -8 225q0 11 -3.5 32t-3.5 32q1 6 1 10q0 7 -3 26q0 20 20 26q12 3 24 7l35 17q16 8 35 20l30 4z" />
    <glyph glyph-name="J" unicode="J" horiz-adv-x="211" 
d="M190 249q0 -55 -1 -68q-4 -54 -30 -103q-19 -35 -34 -55q-20 -26 -50 -47q-14 15 -22.5 38t-15.5 45l-19 52q-8 26 -8 58q0 16 8 28q27 29 45 52l26 -82q7 -24 16 -42q7 21 7 44q0 15 -3.5 44.5t-3.5 44.5q0 46 -3 139t-3 139q0 12 -1 34.5t-1 34.5q0 6 -3 19t-3 19
q0 29 38 43l51 17l10 -253v-201z" />
    <glyph glyph-name="K" unicode="K" horiz-adv-x="248" 
d="M196 460l35 -17l-94 -137l15 2q30 4 54.5 -19t27.5 -53q5 -63 16 -188q-27 -6 -80 -33q11 66 11 114q0 11 -5 77q-3 34 -62 54l-6 -242q-5 -1 -72 -23q-5 33 -5 81q0 23 2.5 69t2.5 69q0 91 2 163l6 267l73 8l-13 -328z" />
    <glyph glyph-name="L" unicode="L" horiz-adv-x="157" 
d="M96 838q0 -106 -2 -186l-6 -282q0 -38 2 -109l2 -84q0 -10 3 -29.5t3 -29.5q0 -14 -4 -26q-4 -19 -35 -56q-22 -27 -37 -52l-31 800q24 8 50 23z" />
    <glyph glyph-name="M" unicode="M" horiz-adv-x="449" 
d="M436 36q-16 -9 -47 -12q-35 -4 -50 -10l-7 330v4q0 -2 2 -9l-102 -286l-158 230l-11 -281l-47 26l13 595l191 -231l156 290z" />
    <glyph glyph-name="N" unicode="N" horiz-adv-x="450" 
d="M414 366q0 -58 -3.5 -174.5t-3.5 -174.5h-28q-19 -1 -28 -1h-31q-16 3 -24 4q0 49 10 166q5 59 5 101q0 15 -11 114q-9 71 -43 67t-72 -36q-23 -19 -30 -27q-17 -19 -20 -58q-1 -13 -1 -24q0 -16 2 -46.5t2 -46.5v-73q0 -62 6 -121q-24 -4 -59 -7l-58 -5l-2 18q7 39 7 97
v60q0 48 -2 140l-2 151q0 15 1 46q0 6 -2.5 18t-2.5 16q0 15 14 23q0 1 27 11l30 16q20 10 38 17q3 -35 3 -58q0 -14 -1 -42t-1 -42l3 -7q48 48 62 58q35 25 81 25q7 1 9 1q51 0 84 -46q27 -39 33 -94q8 -71 8 -66z" />
    <glyph glyph-name="O" unicode="O" horiz-adv-x="290" 
d="M252 472q1 -10 8 -56q6 -35 6 -57q0 -28 -5 -77q-2 -31 -10 -97l-14 -76q-10 -46 -25 -71q-25 -41 -66 -41q-54 -5 -84 53q-22 42 -28 105q0 63 -4 114q-12 152 -12 185q0 52 14 136q23 141 117 151q74 8 103 -269zM215 477q-6 53 -41 53q-31 -3 -48 -36q-7 -14 -21 -68
q-18 -73 -24 -119q-9 -67 -7 -117l2 -49q14 -100 56 -100q50 0 67 50q11 32 11 105v41q0 30 4 89.5t4 89.5q0 36 -3 61z" />
    <glyph glyph-name="P" unicode="P" horiz-adv-x="286" 
d="M256 500q1 -9 1 -14q0 -31 -6 -55q-4 -14 -10 -37q-12 -58 -25 -85q-18 -39 -56 -66l-24 -12q-15 -9 -19.5 -18.5t-4.5 -14.5q3 -17 3 -24l-4 -74q2 -15 2 -21q0 -3 -2 -11q-9 -19 -31 -34l-49 -35l-4 32q4 25 4 50q0 15 -2 45.5t-2 45.5v348q0 4 -6 58q0 32 19 44
q6 4 19 12q26 18 30 22q15 9 35 11q33 0 67 -35.5t45 -51.5q13 -20 15.5 -40t4.5 -40zM188 449l-3 45q-3 48 -39 44q-48 0 -59 -21q-2 -5 0 -13q1 -8 1 -12q0 -47 2 -79q7 -113 7 -126q30 15 39 22q22 13 34 30q19 26 19 65q0 30 -1 45z" />
    <glyph glyph-name="Q" unicode="Q" horiz-adv-x="277" 
d="M294 18l-54 -59l-64 43q-13 -7 -31 -9q-35 -3 -34 -3q-31 0 -50 13q-24 16 -33 44q-6 18 -18 120q-4 34 -4 82q0 29 1 88t1 88q0 104 22 164q39 105 112 105q86 0 104 -171q5 -48 5 -89q0 -42 -1 -63l-5 -117v-38v-19q1 -13 1 -18q1 -73 -27 -126zM187 367l-3 58
q-2 38 -34 38q-29 0 -47 -52q-4 -11 -8 -25q-18 -60 -24 -107q-9 -65 -7 -118l2 -49q2 -47 18 -68q13 -18 35 -15l15 4q-5 4 -9 11q2 2 15 23q7 12 16 14q8 0 14 -3q17 82 17 202v87z" />
    <glyph glyph-name="R" unicode="R" horiz-adv-x="274" 
d="M230 43l-24 -3l-8 68q-7 57 -58 114q-12 17 -18 24q-11 13 -25 13l-56 -7l-7 -238l-25 -4l3 651l33 4q26 -3 77 -10q63 -10 90 -84q8 -25 16 -97q3 -28 3 -43q0 -100 -76 -146l-24 -14q84 -56 93 -161zM159 432q-10 76 -110 94l3 -235l19 2q45 5 69 43q20 33 20 81
q-1 10 -1 15z" />
    <glyph glyph-name="S" unicode="S" horiz-adv-x="304" 
d="M268 242v-13q0 -25 -8 -59q-8 -29 -15 -58q-13 -54 -27 -77q-23 -36 -62 -39l-36 -3q-23 0 -36 13t-17 35q-6 81 -6 71v54q0 17 1 37h39q25 -1 31 -10t5 -34q-1 -30 -1 -28q0 -5 2 -19v-36q3 -24 18 -23q23 5 33 54q6 33 6 100q-5 43 -115 122q-52 37 -57 84q-1 9 -1 22
q0 14 4 36l5 35q6 60 20 93q19 42 62 70q49 32 68 32q23 0 47.5 -37.5t29.5 -67.5v-107q-30 -5 -89 -13q25 71 25 123v14q0 9 -2 37q-1 5 -4 5q-25 -5 -46 -43q-30 -55 -30 -87q0 -9 1 -14q5 -57 76 -127q79 -79 79 -142z" />
    <glyph glyph-name="T" unicode="T" horiz-adv-x="280" 
d="M275 465l-136 -30l23 -421l-76 -6l24 419q-34 -8 -104 -21l-1 229q18 -5 37 -5q13 0 36 5.5t33 6.5l-1 185l28 6v-183q19 0 57.5 6t58.5 6z" />
    <glyph glyph-name="U" unicode="U" horiz-adv-x="375" 
d="M306 747q0 -75 -12 -253q-6 -89 -6 -152q0 -35 -5 -90q-6 -73 -7 -89v-19q0 -9 1 -17q0 -35 -16 -64q-26 -47 -112 -57q-89 -10 -109 176q-5 46 -5 100q0 46 1 69l5 127q0 26 2.5 77t2.5 76q0 9 -3 25.5t-3 25.5q0 41 47 52q29 7 37 10q1 -15 8 -66q5 -42 5 -67
q0 -54 -2 -92l-7 -137q0 -44 6 -100l11 -102q10 -94 62 -94q44 5 44 95q0 46 3 84q9 115 9 135q0 142 19 344z" />
    <glyph glyph-name="V" unicode="V" horiz-adv-x="404" 
d="M388 635l-147 -622l-232 557q16 26 54 58q27 22 44 38l162 -385l98 353z" />
    <glyph glyph-name="W" unicode="W" horiz-adv-x="614" 
d="M585 637l-145 -612l-125 309q-1 -6 1 -12l-74 -305l-228 546q18 30 97 95l159 -378q17 48 25 96l-81 197q14 25 40 47q46 38 51 43q20 -17 45 -86l15 49l22 2q-8 -30 -22 -91l103 -248l96 346z" />
    <glyph glyph-name="X" unicode="X" horiz-adv-x="385" 
d="M336 692l-116 -260l84 -342q-7 -19 -20 -40q-41 -65 -49 -81l-94 318l-81 -275l-51 17l107 307l-71 278q14 25 34 40q12 9 52 29l61 -206l100 235z" />
    <glyph glyph-name="Y" unicode="Y" horiz-adv-x="417" 
d="M398 814q-2 -25 -13 -58q-12 -37 -19 -63l-98 -378q-11 -68 -36 -147q-34 -108 -43 -145l-31 -138q-8 -33 -33 -101q-4 7 -8 13t-14 6l117 449l-62 155q-32 79 -59 139q-30 65 -76 154l107 139l151 -351l93 330z" />
    <glyph glyph-name="Z" unicode="Z" horiz-adv-x="362" 
d="M348 405q-3 -21 -3 -37q0 -11 1.5 -34t1.5 -34q0 -7 2 -24l2 -19q0 -26 -25 -46q-5 -4 -47 -28l-54 -42l-87 -65l-39 -34q-21 -17 -47 -28q-9 13 -11 17l165 512l-90 -35q-26 -9 -94 -35l-18 162l301 129l-171 -552l-4 4l213 234z" />
    <glyph glyph-name="a" unicode="a" horiz-adv-x="319" 
d="M295 65q1 -19 -28 -43q-15 13 -24 33q-13 29 -15 32q-32 -49 -130 -59q-32 0 -59.5 25.5t-31 59t-3.5 52.5q0 96 79 165q40 35 91 41q16 0 43 8q7 5 7 18q-1 26 -1 20q-3 33 -13 63q-3 9 -24 61l-6 22q-5 13 -14 13q-6 -1 -24 -28q-32 -49 -32 -128v-52q-14 -6 -27 -11
q-5 -1 -10 -1h-8q-14 0 -43 6q7 24 18 131q8 81 36 125q10 16 18 24q20 21 55 21q31 0 60 -23l49 -43q10 -9 11 -23l12 -118l-6 -323q10 -22 20 -68zM217 326l-1 3l-74 -40q-57 -46 -57 -120q0 -38 14 -55q10 -13 27 -11q94 10 94 164q0 30 -3 59z" />
    <glyph glyph-name="b" unicode="b" horiz-adv-x="346" 
d="M345 289q0 -68 -40 -158q-53 -119 -148 -129q-61 -7 -100 53q-31 48 -37 115q-3 31 -3 59q0 24 22 196q9 66 16 183q8 132 13 184l76 8l-59 -353q5 4 45 48q27 30 59 30q54 0 97 -64q28 -41 37 -60q22 -45 22 -112zM250 219q-7 54 -56 103q-10 11 -22 22.5t-26 9.5
q-6 0 -33 -25q-46 -43 -46 -118q0 -30 7 -82q4 -32 28 -56t55 -21l30 3q32 44 45 69q19 37 19 74q0 13 -1 21z" />
    <glyph glyph-name="c" unicode="c" horiz-adv-x="305" 
d="M269 552q5 -25 5 -43q0 -30 -27 -48l-31 -21l-3 87q-5 35 -13 50q-13 25 -39 25q-13 0 -13 -30v-15q-14 -119 -14 -167q0 -26 -4 -78.5t-4 -78.5q0 -104 38 -162l10 -19q3 -7 12 -6q10 1 13.5 12l6.5 21l41 100l19 1q-22 -179 -109 -179q-25 0 -43 14q-13 10 -31 33
q-32 41 -42 59q-19 33 -23 67l-10 92q-3 28 -3 54q0 34 20 155q27 161 109 171q38 4 52 4q26 0 46 -13q37 -24 37 -85z" />
    <glyph glyph-name="d" unicode="d" horiz-adv-x="408" 
d="M360 804q0 -73 -9 -206q-9 -143 -10 -205l-4 -230q0 -11 2.5 -33t2.5 -33v-18q-3 -9 -4 -13q-23 -66 -97 -66q-5 -1 -15 -1q-33 0 -62 20q-17 12 -52 50q-52 56 -68 83q-26 43 -32 100q-1 9 -1 25q0 54 29 101q21 33 76 85q15 16 46 46q24 22 56 26q29 3 50 -21
q5 -6 33 -56l-5 346h64zM300 177q0 13 1 39.5t1 39.5q0 27 -2 42q-5 34 -27 58t-55 20q-53 -6 -85 -53q-28 -42 -28 -98q0 -45 21 -81q12 -20 23 -35q22 -30 36 -40q21 -16 50 -16q12 0 38.5 27.5t26.5 96.5z" />
    <glyph glyph-name="e" unicode="e" horiz-adv-x="330" 
d="M283 639q2 -17 2 -42q0 -48 -16 -111q-25 -98 -29 -123l-138 9q-7 -5 -11 -45l-5 -30q-3 -19 -3 -29q0 -24 18 -96l6 -51q8 -33 29 -33q11 0 15 11t8 25q17 47 17 89v18q-2 15 -2 22l29 4l42 -14q12 -6 12 -18q1 -7 1 -21q0 -42 -21 -82q-9 -16 -30 -50l-26 -38
q-16 -18 -38 -18q-24 -3 -43 15q-7 7 -30 43q-59 93 -71 202q-5 50 -5 86q0 61 32 202l12 64q8 36 21 62.5t40 37.5q17 8 57 13q7 0 21.5 1.5t21.5 1.5q20 0 40 -6q27 -8 37 -39q4 -11 7 -60zM224 624q-10 69 -58 63q-19 0 -29 -27l-13 -33q-30 -65 -30 -129q0 -28 2 -45
l4 -34l98 -5l27 179v19q-1 8 -1 12z" />
    <glyph glyph-name="f" unicode="f" horiz-adv-x="328" 
d="M282 465q-29 -8 -87 -27q13 71 13 117q0 36 -4 69q-5 43 -12 61q-12 33 -39 29q-18 -2 -24 -24q-2 -7 -6 -44q0 -28 -2 -82l-2 -64v-138q0 -12 1 -32q2 -24 2 -32q0 -16 -2 -28l2 -15l37 3q5 -20 5 -18v-31q-1 -21 -1 -31v-12q-19 -4 -31 -4q-7 1 -10 1q-2 -18 -2 -33
q0 -16 2.5 -48.5t2.5 -48.5v-21q0 -39 -18 -44q-23 -2 -69 -9l3 203q-5 6 -14 5l-23 -2q-3 26 -3 42v24q0 12 -1 18l40 2q0 33 3 98t3 98v39q-1 25 -1 38q0 84 25 146q23 58 42 83q28 38 72 42q66 6 79 -95q6 -47 12 -129z" />
    <glyph glyph-name="g" unicode="g" horiz-adv-x="378" 
d="M319 120q1 -10 1 -12v-12q0 -14 -3.5 -44t-3.5 -46q1 -38 1 -29q0 -26 -12 -42q-15 -20 -32 -28l-43 -20l-55 -31q-29 -16 -54 -16q-56 0 -81 78q-19 59 -22 70q-12 41 -15 73l-6 61q0 29 16.5 54t71.5 43q3 2 6 1t7 -4q-4 5 -7 11q-3 19 6 35q-59 34 -63 68q-2 16 -2 24
q0 44 61 105l47 48q24 22 57 26q21 2 40 -22l2 9q-11 20 -15 29q-6 14 -7 32q-1 5 -1 13v7q0 18 14 80l51 -6q24 -6 24 -25q2 -12 -2 -32q-4 -24 -4 -32q1 -9 7 -18q14 -21 15 -28q0 -18 -3 -33q-9 -45 -9 -50q1 -8 1.5 -13.5t0.5 -16.5q0 -16 -14 -58l-6 -32
q-7 -22 -34 -36q-10 -6 -48 -19.5t-50 -36.5q17 -8 64 -12q41 -5 62 -19t29 -40q4 -12 8 -54zM233 395q-2 15 -14 24.5t-27 7.5q-87 -10 -87 -68q0 -13 11.5 -20.5t24.5 -5.5q97 14 92 62zM264 100q-3 15 -22 15q1 0 -51 -8q-36 0 -49 -3q-24 -5 -42 -23q-27 -27 -25 -84
q3 -75 29 -72q25 0 89 29l35 8q32 7 32 31q-2 15 -2 24q0 14 3 41.5t3 41.5z" />
    <glyph glyph-name="h" unicode="h" horiz-adv-x="363" 
d="M350 350v-80v-41q1 -31 1 -42q1 -171 -18 -171l-92 -11q0 59 11 171q6 61 6 93v36q-2 15 -4 39q-5 47 -7 53q-8 27 -32 25q-14 -3 -30 -30q-21 -35 -25 -90l-4 -93q-9 -83 -9 -129q0 -45 5 -87l-110 -12l16 814q9 1 13 1q11 0 37 -3q14 0 32 7q0 -53 2 -135l2 -121
q0 -13 4 -36q45 48 98 53q82 8 100 -158q5 -46 5 -41q-1 -8 -1 -12z" />
    <glyph glyph-name="i" unicode="i" horiz-adv-x="198" 
d="M154 822l-19 -244l-56 17q-27 7 -58 7l3 206zM180 508q-19 -116 -19 -266v-43l-4 -79q0 -7 3 -36q0 -9 -5 -20q-11 -25 -53 -49q-31 -18 -48 -31q0 81 -3 152q-8 190 -8 225q0 11 -3.5 32t-3.5 32q1 6 1 10q0 7 -3 26q0 20 20 26q12 3 24 7l35 17q16 8 35 20l30 4z" />
    <glyph glyph-name="j" unicode="j" horiz-adv-x="211" 
d="M190 249q0 -55 -1 -68q-4 -54 -30 -103q-19 -35 -34 -55q-20 -26 -50 -47q-14 15 -22.5 38t-15.5 45l-19 52q-8 26 -8 58q0 16 8 28q27 29 45 52l26 -82q7 -24 16 -42q7 21 7 44q0 15 -3.5 44.5t-3.5 44.5q0 46 -3 139t-3 139q0 12 -1 34.5t-1 34.5q0 6 -3 19t-3 19
q0 29 38 43l51 17l10 -253v-201z" />
    <glyph glyph-name="k" unicode="k" horiz-adv-x="248" 
d="M196 460l35 -17l-94 -137l15 2q30 4 54.5 -19t27.5 -53q5 -63 16 -188q-27 -6 -80 -33q11 66 11 114q0 11 -5 77q-3 34 -62 54l-6 -242q-5 -1 -72 -23q-5 33 -5 81q0 23 2.5 69t2.5 69q0 91 2 163l6 267l73 8l-13 -328z" />
    <glyph glyph-name="l" unicode="l" horiz-adv-x="157" 
d="M96 838q0 -106 -2 -186l-6 -282q0 -38 2 -109l2 -84q0 -10 3 -29.5t3 -29.5q0 -14 -4 -26q-4 -19 -35 -56q-22 -27 -37 -52l-31 800q24 8 50 23z" />
    <glyph glyph-name="m" unicode="m" horiz-adv-x="443" 
d="M436 36q-16 -9 -47 -12q-35 -4 -50 -10l-7 330v4q0 -2 2 -9l-102 -286l-158 230l-11 -281l-47 26l13 595l191 -231l156 290z" />
    <glyph glyph-name="n" unicode="n" horiz-adv-x="450" 
d="M414 366q0 -58 -3.5 -174.5t-3.5 -174.5h-28q-19 -1 -28 -1h-31q-16 3 -24 4q0 49 10 166q5 59 5 101q0 15 -11 114q-9 71 -43 67t-72 -36q-23 -19 -30 -27q-17 -19 -20 -58q-1 -13 -1 -24q0 -16 2 -46.5t2 -46.5v-73q0 -62 6 -121q-24 -4 -59 -7l-58 -5l-2 18q7 39 7 97
v60q0 48 -2 140l-2 151q0 15 1 46q0 6 -2.5 18t-2.5 16q0 15 14 23q0 1 27 11l30 16q20 10 38 17q3 -35 3 -58q0 -14 -1 -42t-1 -42l3 -7q48 48 62 58q35 25 81 25q7 1 9 1q51 0 84 -46q27 -39 33 -94q8 -71 8 -66z" />
    <glyph glyph-name="o" unicode="o" horiz-adv-x="290" 
d="M252 472q1 -10 8 -56q6 -35 6 -57q0 -28 -5 -77q-2 -31 -10 -97l-14 -76q-10 -46 -25 -71q-25 -41 -66 -41q-54 -5 -84 53q-22 42 -28 105q0 63 -4 114q-12 152 -12 185q0 52 14 136q23 141 117 151q74 8 103 -269zM215 477q-6 53 -41 53q-31 -3 -48 -36q-7 -14 -21 -68
q-18 -73 -24 -119q-9 -67 -7 -117l2 -49q14 -100 56 -100q50 0 67 50q11 32 11 105v41q0 30 4 89.5t4 89.5q0 36 -3 61z" />
    <glyph glyph-name="p" unicode="p" horiz-adv-x="286" 
d="M256 500q1 -9 1 -14q0 -31 -6 -55q-4 -14 -10 -37q-12 -58 -25 -85q-18 -39 -56 -66l-24 -12q-15 -9 -19.5 -18.5t-4.5 -14.5q3 -17 3 -24l-4 -74q2 -15 2 -21q0 -3 -2 -11q-9 -19 -31 -34l-49 -35l-4 32q4 25 4 50q0 15 -2 45.5t-2 45.5v348q0 4 -6 58q0 32 19 44
q6 4 19 12q26 18 30 22q15 9 35 11q33 0 67 -35.5t45 -51.5q13 -20 15.5 -40t4.5 -40zM188 449l-3 45q-3 48 -39 44q-48 0 -59 -21q-2 -5 0 -13q1 -8 1 -12q0 -47 2 -79q7 -113 7 -126q30 15 39 22q22 13 34 30q19 26 19 65q0 30 -1 45z" />
    <glyph glyph-name="q" unicode="q" horiz-adv-x="277" 
d="M294 18l-54 -59l-64 43q-13 -7 -31 -9q-35 -3 -34 -3q-31 0 -50 13q-24 16 -33 44q-6 18 -18 120q-4 34 -4 82q0 29 1 88t1 88q0 104 22 164q39 105 112 105q86 0 104 -171q5 -48 5 -89q0 -42 -1 -63l-5 -117v-38v-19q1 -13 1 -18q1 -73 -27 -126zM187 367l-3 58
q-2 38 -34 38q-29 0 -47 -52q-4 -11 -8 -25q-18 -60 -24 -107q-9 -65 -7 -118l2 -49q2 -47 18 -68q13 -18 35 -15l15 4q-5 4 -9 11q2 2 15 23q7 12 16 14q8 0 14 -3q17 82 17 202v87z" />
    <glyph glyph-name="r" unicode="r" horiz-adv-x="274" 
d="M230 43l-24 -3l-8 68q-7 57 -58 114q-12 17 -18 24q-11 13 -25 13l-56 -7l-7 -238l-25 -4l3 651l33 4q26 -3 77 -10q63 -10 90 -84q8 -25 16 -97q3 -28 3 -43q0 -100 -76 -146l-24 -14q84 -56 93 -161zM159 432q-10 76 -110 94l3 -235l19 2q45 5 69 43q20 33 20 81
q-1 10 -1 15z" />
    <glyph glyph-name="s" unicode="s" horiz-adv-x="304" 
d="M268 242v-13q0 -25 -8 -59q-8 -29 -15 -58q-13 -54 -27 -77q-23 -36 -62 -39l-36 -3q-23 0 -36 13t-17 35q-6 81 -6 71v54q0 17 1 37h39q25 -1 31 -10t5 -34q-1 -30 -1 -28q0 -5 2 -19v-36q3 -24 18 -23q23 5 33 54q6 33 6 100q-5 43 -115 122q-52 37 -57 84q-1 9 -1 22
q0 14 4 36l5 35q6 60 20 93q19 42 62 70q49 32 68 32q23 0 47.5 -37.5t29.5 -67.5v-107q-30 -5 -89 -13q25 71 25 123v14q0 9 -2 37q-1 5 -4 5q-25 -5 -46 -43q-30 -55 -30 -87q0 -9 1 -14q5 -57 76 -127q79 -79 79 -142z" />
    <glyph glyph-name="t" unicode="t" horiz-adv-x="280" 
d="M275 465l-136 -30l23 -421l-76 -6l24 419q-34 -8 -104 -21l-1 229q18 -5 37 -5q13 0 36 5.5t33 6.5l-1 185l28 6v-183q19 0 57.5 6t58.5 6z" />
    <glyph glyph-name="u" unicode="u" horiz-adv-x="375" 
d="M306 747q0 -75 -12 -253q-6 -89 -6 -152q0 -35 -5 -90q-6 -73 -7 -89v-19q0 -9 1 -17q0 -35 -16 -64q-26 -47 -112 -57q-89 -10 -109 176q-5 46 -5 100q0 46 1 69l5 127q0 26 2.5 77t2.5 76q0 9 -3 25.5t-3 25.5q0 41 47 52q29 7 37 10q1 -15 8 -66q5 -42 5 -67
q0 -54 -2 -92l-7 -137q0 -44 6 -100l11 -102q10 -94 62 -94q44 5 44 95q0 46 3 84q9 115 9 135q0 142 19 344z" />
    <glyph glyph-name="v" unicode="v" horiz-adv-x="404" 
d="M388 635l-147 -622l-232 557q16 26 54 58q27 22 44 38l162 -385l98 353z" />
    <glyph glyph-name="w" unicode="w" horiz-adv-x="614" 
d="M585 637l-145 -612l-125 309q-1 -6 1 -12l-74 -305l-228 546q18 30 97 95l159 -378q17 48 25 96l-81 197q14 25 40 47q46 38 51 43q20 -17 45 -86l15 49l22 2q-8 -30 -22 -91l103 -248l96 346z" />
    <glyph glyph-name="x" unicode="x" horiz-adv-x="385" 
d="M336 692l-116 -260l84 -342q-7 -19 -20 -40q-41 -65 -49 -81l-94 318l-81 -275l-51 17l107 307l-71 278q14 25 34 40q12 9 52 29l61 -206l100 235z" />
    <glyph glyph-name="y" unicode="y" horiz-adv-x="417" 
d="M394 802q-2 -25 -13 -58q-12 -37 -19 -63l-98 -378q-11 -68 -36 -147q-34 -108 -43 -145l-31 -138q-8 -33 -33 -101q-4 7 -8 13t-14 6l117 449l-62 155q-32 79 -59 139q-30 65 -76 154l107 139l151 -351l93 330z" />
    <glyph glyph-name="z" unicode="z" horiz-adv-x="362" 
d="M348 405q-3 -21 -3 -37q0 -11 1.5 -34t1.5 -34q0 -7 2 -24l2 -19q0 -26 -25 -46q-5 -4 -47 -28l-54 -42l-87 -65l-39 -34q-21 -17 -47 -28q-9 13 -11 17l165 512l-90 -35q-26 -9 -94 -35l-18 162l301 129l-171 -552l-4 4l213 234z" />
    <glyph glyph-name="nonbreakingspace" unicode="&#xa0;" 
 />
    <glyph glyph-name="Adieresis" unicode="&#xc4;" horiz-adv-x="319" 
d="M295 65q1 -19 -28 -43q-15 13 -24 33q-13 29 -15 32q-32 -49 -130 -59q-32 0 -59.5 25.5t-31 59t-3.5 52.5q0 96 79 165q40 35 91 41q16 0 43 8q7 5 7 18q-1 26 -1 20q-3 33 -13 63q-3 9 -24 61l-6 22q-5 13 -14 13q-6 -1 -24 -28q-32 -49 -32 -128v-52q-14 -6 -27 -11
q-5 -1 -10 -1h-8q-14 0 -43 6q7 24 18 131q8 81 36 125q10 16 18 24q20 21 55 21q31 0 60 -23l49 -43q10 -9 11 -23l12 -118l-6 -323q10 -22 20 -68zM217 326l-1 3l-74 -40q-57 -46 -57 -120q0 -38 14 -55q10 -13 27 -11q94 10 94 164q0 30 -3 59zM75 781q22 0 36 -15
t14 -37t-15 -36t-37 -14t-36 15t-14 37q0 21 15.5 35.5t36.5 14.5zM248 756q14 6 27 6q33 0 51 -32q6 -14 6 -27q0 -33 -32 -51q-14 -6 -27 -6q-33 0 -51 32q-6 14 -6 27q0 33 32 51z" />
    <glyph glyph-name="Aring" unicode="&#xc5;" horiz-adv-x="319" 
d="M295 65q1 -19 -28 -43q-15 13 -24 33q-13 29 -15 32q-32 -49 -130 -59q-32 0 -59.5 25.5t-31 59t-3.5 52.5q0 96 79 165q40 35 91 41q16 0 43 8q7 5 7 18q-1 26 -1 20q-3 33 -13 63q-3 9 -24 61l-6 22q-5 13 -14 13q-6 -1 -24 -28q-32 -49 -32 -128v-52q-14 -6 -27 -11
q-5 -1 -10 -1h-8q-14 0 -43 6q7 24 18 131q8 81 36 125q10 16 18 24q20 21 55 21q31 0 60 -23l49 -43q10 -9 11 -23l12 -118l-6 -323q10 -22 20 -68zM217 326l-1 3l-74 -40q-57 -46 -57 -120q0 -38 14 -55q10 -13 27 -11q94 10 94 164q0 30 -3 59zM196 823q29 0 48.5 -19
t19.5 -48q0 -28 -20 -48t-48 -20q-29 0 -48 19.5t-19 48.5t19 48t48 19z" />
    <glyph glyph-name="Ecircumflex" unicode="&#xca;" 
 />
    <glyph glyph-name="Odieresis" unicode="&#xd6;" horiz-adv-x="290" 
d="M252 472q1 -10 8 -56q6 -35 6 -57q0 -28 -5 -77q-2 -31 -10 -97l-14 -76q-10 -46 -25 -71q-25 -41 -66 -41q-54 -5 -84 53q-22 42 -28 105q0 63 -4 114q-12 152 -12 185q0 52 14 136q23 141 117 151q74 8 103 -269zM215 477q-6 53 -41 53q-31 -3 -48 -36q-7 -14 -21 -68
q-18 -73 -24 -119q-9 -67 -7 -117l2 -49q14 -100 56 -100q50 0 67 50q11 32 11 105v41q0 30 4 89.5t4 89.5q0 36 -3 61zM6 820q25 0 40.5 -16t15.5 -40q0 -25 -16 -40.5t-40 -15.5q-25 0 -40.5 16t-15.5 40q0 25 16 40.5t40 15.5zM258 829q26 0 44.5 -18.5t18.5 -44.5
t-18.5 -44.5t-44.5 -18.5t-44.5 18.5t-18.5 44.5t18.5 44.5t44.5 18.5z" />
    <glyph glyph-name="adieresis" unicode="&#xe4;" horiz-adv-x="319" 
d="M295 65q1 -19 -28 -43q-15 13 -24 33q-13 29 -15 32q-32 -49 -130 -59q-32 0 -59.5 25.5t-31 59t-3.5 52.5q0 96 79 165q40 35 91 41q16 0 43 8q7 5 7 18q-1 26 -1 20q-3 33 -13 63q-3 9 -24 61l-6 22q-5 13 -14 13q-6 -1 -24 -28q-32 -49 -32 -128v-52q-14 -6 -27 -11
q-5 -1 -10 -1h-8q-14 0 -43 6q7 24 18 131q8 81 36 125q10 16 18 24q20 21 55 21q31 0 60 -23l49 -43q10 -9 11 -23l12 -118l-6 -323q10 -22 20 -68zM217 326l-1 3l-74 -40q-57 -46 -57 -120q0 -38 14 -55q10 -13 27 -11q94 10 94 164q0 30 -3 59zM75 781q22 0 36 -15
t14 -37t-15 -36t-37 -14t-36 15t-14 37q0 21 15.5 35.5t36.5 14.5zM248 756q14 6 27 6q33 0 51 -32q6 -14 6 -27q0 -33 -32 -51q-14 -6 -27 -6q-33 0 -51 32q-6 14 -6 27q0 33 32 51z" />
    <glyph glyph-name="aring" unicode="&#xe5;" horiz-adv-x="319" 
d="M295 65q1 -19 -28 -43q-15 13 -24 33q-13 29 -15 32q-32 -49 -130 -59q-32 0 -59.5 25.5t-31 59t-3.5 52.5q0 96 79 165q40 35 91 41q16 0 43 8q7 5 7 18q-1 26 -1 20q-3 33 -13 63q-3 9 -24 61l-6 22q-5 13 -14 13q-6 -1 -24 -28q-32 -49 -32 -128v-52q-14 -6 -27 -11
q-5 -1 -10 -1h-8q-14 0 -43 6q7 24 18 131q8 81 36 125q10 16 18 24q20 21 55 21q31 0 60 -23l49 -43q10 -9 11 -23l12 -118l-6 -323q10 -22 20 -68zM217 326l-1 3l-74 -40q-57 -46 -57 -120q0 -38 14 -55q10 -13 27 -11q94 10 94 164q0 30 -3 59zM196 823q29 0 48.5 -19
t19.5 -48q0 -28 -20 -48t-48 -20q-29 0 -48 19.5t-19 48.5t19 48t48 19z" />
    <glyph glyph-name="odieresis" unicode="&#xf6;" horiz-adv-x="290" 
d="M252 472q1 -10 8 -56q6 -35 6 -57q0 -28 -5 -77q-2 -31 -10 -97l-14 -76q-10 -46 -25 -71q-25 -41 -66 -41q-54 -5 -84 53q-22 42 -28 105q0 63 -4 114q-12 152 -12 185q0 52 14 136q23 141 117 151q74 8 103 -269zM215 477q-6 53 -41 53q-31 -3 -48 -36q-7 -14 -21 -68
q-18 -73 -24 -119q-9 -67 -7 -117l2 -49q14 -100 56 -100q50 0 67 50q11 32 11 105v41q0 30 4 89.5t4 89.5q0 36 -3 61zM6 820q25 0 40.5 -16t15.5 -40q0 -25 -16 -40.5t-40 -15.5q-25 0 -40.5 16t-15.5 40q0 25 16 40.5t40 15.5zM258 829q26 0 44.5 -18.5t18.5 -44.5
t-18.5 -44.5t-44.5 -18.5t-44.5 18.5t-18.5 44.5t18.5 44.5t44.5 18.5z" />
    <glyph glyph-name="glyph64" 
 />
    <glyph glyph-name="glyph65" 
 />
  </font>
</defs>
</svg>
